# xmcd
#
# Track frame offsets:
#	225
#	13477
#	29181
#	42575
#	54357
#	68088
#	84438
#	93798
#	106264
#	120131
#	136118
#	154139
#	165293
#	176723
#	190344
#	206878
#
# Disc length: 2978 seconds
#
# Revision: 0
# Processed by: cddbd v1.5.2PL0 Copyright (c) Steve Scherf et al.
# Submitted via: SynApp - FreeCDDB Version: 2.3
#
DISCID=d40b9f10
DTITLE=x - Schlager die niemals vergehen
DYEAR=1999
DGENRE=Schlager
TTITLE0=Camillo Felgen  - Bist Du einsam heut´ Nacht
TTITLE1=Iree Sheer - Ich hab´ Gefühle
TTITLE2=Ivo Robic - Fremde in der Nacht
TTITLE3=Trio Melody - Du, ich hab Dich doch geliebt
TTITLE4=Efi Graf - Hoffnungslos verliebt 
TTITLE5=Ulli Martin - One Way Wind (Abendwind)
TTITLE6=Renate Kern - Lieber mal Weinen im Glück
TTITLE7=Christian Anders - Einsamkeit hat viele Namen
TTITLE8=Graham Bonney - Mein Kopf auf deinem Kissen
TTITLE9=Fred Bertelsmann - Wo hehst Du hin?
TTITLE10=Marion Maerz - Du gehst fort
TTITLE11=Udo Jürgens - Du darfst nicht geh´n
TTITLE12=Lena Valaitis - Hier stand einmal sein Klavier
TTITLE13=Roy Black - Bleib bei mir
TTITLE14=Bernie - Immer wieder Träumerei
TTITLE15=Rolland B. - Madonna der einsamen Herzen
EXTD=
EXTT0=
EXTT1=
EXTT2=
EXTT3=
EXTT4=
EXTT5=
EXTT6=
EXTT7=
EXTT8=
EXTT9=
EXTT10=
EXTT11=
EXTT12=
EXTT13=
EXTT14=
EXTT15=
PLAYORDER=
